<svg width="222" height="250" viewBox="0 0 222 250" fill="none" xmlns="http://www.w3.org/2000/svg">
<path d="M52.2862 175.336C52.2193 167.6 50.7792 159.987 47.7652 152.831C47.7205 152.708 47.6424 152.653 47.5531 152.619C46.593 149.962 45.1083 147.551 42.7083 145.921C38.9798 143.398 34.6038 142.182 30.4512 144.358C21.7551 148.935 23.8426 162.309 26.3431 169.621C28.3748 175.571 31.7126 181.141 36.669 185.059C40.1073 187.783 45.3539 190.127 49.2722 187.124C52.476 184.68 52.3086 178.897 52.2862 175.336Z" fill="black"/>
<path d="M50.2209 183.027C47.9213 191.054 38.7676 184.668 35.4744 181.543C32.1478 178.395 30.0603 174.03 28.3859 169.844C25.5727 162.8 24.289 154.36 28.9217 147.774C32.025 143.354 37.9415 144.883 41.8598 147.149C44.2263 148.511 45.7445 150.732 46.7827 153.188C46.7604 153.278 46.7604 153.367 46.7827 153.445C49.5735 162.934 53.0675 173.081 50.2209 183.027Z" fill="white"/>
<path d="M47.4193 177.457C46.2025 175.804 45.2537 173.951 44.0369 172.277C41.5698 168.872 41.2014 166.439 42.675 162.453C43.8583 159.216 42.4629 156.749 40.1633 154.516C35.2403 149.739 31.389 155.086 30.8197 160.009C30.7528 160.589 31.5118 160.321 31.6123 159.919C32.0365 158.278 32.4049 156.961 33.2645 155.488C35.2403 152.105 38.4107 155.309 39.6609 156.648C42.4964 159.696 40.4535 162.945 39.5939 166.249C39.4377 166.829 39.4042 167.41 39.4488 167.957C38.6451 167.51 37.7967 167.131 36.9036 166.941C34.8161 166.506 33.6217 167.934 33.5547 169.899C33.5435 170.323 34.1129 170.167 34.1575 169.832C34.4366 167.365 36.1334 167.51 37.9306 168.437C38.6339 168.794 39.2814 169.229 39.9065 169.709C39.9177 169.709 39.9177 169.721 39.9177 169.721C41.2461 172.869 44.9299 175.537 45.6332 178.584C45.9681 180.024 48.2789 178.629 47.4193 177.457Z" fill="black"/>
<path d="M169.075 187.135C172.993 190.138 178.24 187.794 181.678 185.07C186.634 181.152 189.972 175.57 191.993 169.631C194.493 162.319 196.581 148.946 187.873 144.369C183.732 142.192 179.356 143.398 175.628 145.932C173.227 147.562 171.732 149.984 170.783 152.63C170.693 152.663 170.615 152.719 170.571 152.842C167.557 159.986 166.117 167.611 166.05 175.347C166.016 178.897 165.86 184.679 169.075 187.135Z" fill="black"/>
<path d="M171.53 153.456C171.553 153.378 171.553 153.289 171.53 153.2C172.557 150.744 174.087 148.533 176.453 147.16C180.372 144.894 186.288 143.354 189.403 147.786C194.035 154.361 192.74 162.811 189.938 169.855C188.264 174.041 186.176 178.406 182.85 181.554C179.545 184.668 170.392 191.054 168.103 183.039C165.257 173.081 168.751 162.934 171.53 153.456Z" fill="white"/>
<path d="M170.906 177.457C172.111 175.804 173.071 173.951 174.277 172.277C176.744 168.872 177.113 166.439 175.639 162.453C174.456 159.216 175.862 156.749 178.151 154.516C183.074 149.739 186.925 155.086 187.494 160.009C187.561 160.589 186.802 160.321 186.702 159.919C186.277 158.278 185.909 156.961 185.038 155.488C183.074 152.105 179.892 155.309 178.642 156.648C175.806 159.696 177.838 162.945 178.709 166.249C178.854 166.829 178.899 167.41 178.843 167.957C179.635 167.51 180.484 167.131 181.388 166.941C183.464 166.506 184.67 167.934 184.737 169.899C184.759 170.323 184.179 170.167 184.145 169.832C183.866 167.365 182.169 167.51 180.361 168.437C179.669 168.794 179.01 169.229 178.385 169.709L178.374 169.721C177.046 172.869 173.362 175.537 172.658 178.584C172.357 180.024 170.046 178.629 170.906 177.457Z" fill="black"/>
<path d="M180.874 111.337C180.316 112.029 179.813 112.766 179.322 113.514C177.915 107.386 175.326 101.168 171.753 96.122C166.764 89.0558 159.82 84.3449 152.117 80.6053C136.154 72.8246 117.11 67.8235 99.394 67.0532C83.2186 66.35 67.8359 70.9045 55.4894 81.4872C49.4948 86.6222 44.5384 93.108 41.2006 100.264C39.8276 103.222 38.9233 106.18 38.9568 109.451C38.9792 111.806 39.861 114.083 40.6871 116.372C40.4304 116.026 40.1959 115.691 39.9169 115.367C39.7048 115.122 39.2806 115.546 39.4592 115.814C43.2546 121.094 43.6007 127.915 43.8463 134.188C44.1254 141.322 44.237 148.455 44.2147 155.599C44.1589 170.759 42.3951 185.829 45.744 200.799C50.8344 223.482 68.9633 247.282 94.0469 247.773C97.34 249.403 101.403 249.693 105.634 249.392C108.045 249.213 110.937 248.543 113.694 247.416C118.929 247.606 124.422 246.009 129.222 244.38C135.016 242.404 141.01 239.512 145.777 235.628C156.516 226.865 163.682 214.295 167.802 201.201C172.423 186.51 173.272 171.462 173.718 156.202C173.953 148.254 174.488 140.283 175.482 132.402C176.096 127.524 176.777 122.166 178.529 117.377C179.009 117.689 179.969 116.964 179.869 116.35C179.791 115.858 179.679 115.367 179.579 114.865C180.103 113.737 180.695 112.643 181.398 111.628C181.722 111.192 181.153 111.014 180.874 111.337Z" fill="black"/>
<path d="M169.499 96.3004C164.721 89.9485 158.202 85.3716 151.057 82.0004C136.813 75.269 120.515 70.3237 104.786 68.8837C88.0302 67.3432 70.6492 70.134 57.4768 81.3194C51.3259 86.5215 45.7666 92.8398 42.4512 100.252C40.5311 104.572 39.4371 108.602 40.8995 113.257C41.4912 115.099 41.9935 116.829 42.2614 118.682C43.7908 121.685 44.561 125.057 44.9517 128.461C45.6327 134.489 46.0345 140.64 46.1908 146.713C46.5704 161.794 44.7731 177.133 46.749 192.136C48.4458 204.951 53.2794 218.012 61.7969 227.914C69.7115 237.123 79.3788 242.616 90.7987 245.205C89.5708 243.955 88.5661 242.359 87.8293 240.349C88.3205 240.93 88.9345 241.51 89.6377 242.069C92.9085 246.266 98.5348 247.349 103.86 247.058C110.669 247.594 118.896 243.966 122.971 238.574C122.301 240.874 120.749 242.794 118.729 244.357C130.339 242.716 141.524 238.05 149.64 229.186C159.809 218.079 165.525 204.114 168.327 189.468C171.162 174.654 170.95 159.975 172.066 145.005C172.747 135.851 173.462 124.398 177.949 115.713C175.661 108.971 173.864 102.116 169.499 96.3004Z" fill="white"/>
<path opacity="0.5" d="M150.901 194.447C149.383 194.637 147.853 193.208 148.49 191.634C149.193 189.915 150.421 188.832 152.196 188.318C153.669 187.894 156.873 188.475 157.376 190.16C158.257 193.096 152.743 194.213 150.901 194.447Z" fill="#FCECE3"/>
<path opacity="0.5" d="M144.549 196.3C142.752 195.887 142.64 193.911 143.924 192.862C145.018 191.991 146.458 192.873 146.447 194.101C146.458 194.112 146.469 194.134 146.48 194.157C147.295 195.452 145.665 196.557 144.549 196.3Z" fill="#FCECE3"/>
<path d="M109.393 134.391C109.252 132.451 107.947 129.403 105.093 128.876C104.969 128.857 104.836 128.859 104.715 128.878C103.915 126.437 102.324 124.412 99.5175 121.788C95.8154 118.315 92.0474 115.62 86.6134 114.766C78.0855 113.412 70.658 115.583 67.9588 121.621C66.719 122.552 66.1529 123.988 67.5342 125.361C69.27 127.075 73.6096 127.084 75.3156 126.184C75.4203 126.121 75.4813 126.043 75.5424 125.965C76.6605 125.829 77.7642 125.688 78.8995 125.596C81.4432 125.385 83.7832 125.876 86.2691 126.283C88.3909 127.61 89.8698 129.306 91.7648 130.851C91.9156 130.981 92.1395 130.999 92.3422 130.984C93.8932 133.257 95.5277 135.435 98.3139 137.201C100.497 138.587 105.324 140.625 106.899 138.488C108.533 137.649 109.521 136.14 109.393 134.391Z" fill="black"/>
<path d="M106.695 137.501C106.541 137.471 106.365 137.457 106.202 137.499C101.764 138.631 98.1135 135.427 95.0884 131.948C94.2358 130.477 93.1963 129.114 92.5107 127.59C92.3614 127.274 91.6287 127.436 91.7343 127.736C91.9547 128.404 92.2147 129.098 92.5411 129.792C92.045 129.25 91.598 128.664 91.0953 128.095C90.5755 127.482 89.9695 126.926 89.4191 126.353C89.3436 126.426 89.2931 126.52 89.338 126.624C88.9052 126.318 88.4684 126.023 88.0197 125.761C88.0197 125.761 88.0197 125.761 88.0051 125.756C88.0051 125.756 88.0051 125.756 87.9906 125.751C86.6629 124.96 85.1841 124.315 83.6759 123.798C83.509 123.85 83.3103 123.854 83.0758 123.82C81.9753 123.586 80.9593 123.621 79.9524 123.722C80.8039 123.916 81.654 124.159 82.4697 124.453C79.9238 124.35 77.3058 124.722 74.9685 125.183C74.9539 125.178 74.9248 125.167 74.9102 125.162C73.2798 124.938 71.7098 125.187 70.0784 124.737C67.1916 123.936 69.7933 121.781 70.9782 121.231C71.3732 121.048 71.0651 120.624 70.6266 120.654C70.4755 120.662 70.3271 120.709 70.1867 120.733C73.9412 116.152 79.45 114.466 87.8457 116.599C93.1043 117.941 97.7373 121.661 100.758 125.839C102.59 127.65 104.387 129.561 105.301 131.592C105.246 131.197 105.22 130.812 105.138 130.445C106.198 131.477 107.172 132.29 107.567 133.797C107.915 135.161 107.648 136.542 106.695 137.501Z" fill="#FAFAFA"/>
<path opacity="0.9" d="M107.542 133.775C107.199 132.488 106.416 131.693 105.539 130.839C105.439 130.978 105.336 131.129 105.222 131.263C105.248 131.373 105.264 131.466 105.276 131.57C105.233 131.505 105.195 131.429 105.157 131.352C104.678 131.906 104.039 132.402 103.156 132.798C102.567 133.061 101.648 132.781 101.526 132.161C101.385 131.685 101.258 131.214 101.132 130.742C99.0534 130.62 97.8484 129.26 96.9231 127.626C96.7059 127.635 96.482 127.617 96.2927 127.549C93.9715 126.776 92.4517 124.965 90.8271 123.354C90.4851 123.482 90.0215 123.49 89.7156 123.38C88.1532 122.83 86.795 122.079 85.3547 121.372C85.1558 121.514 84.863 121.596 84.6126 121.606C81.6029 121.65 78.949 121.07 76.1092 121.876C74.0778 122.446 72.3213 123.441 70.2727 123.968C69.8765 124.064 69.4883 124.137 69.1041 124.199C69.3118 124.399 69.5937 124.575 70.0863 124.715C71.7178 125.164 73.2878 124.916 74.9182 125.139C74.9473 125.15 74.9619 125.155 74.9765 125.16C77.3138 124.7 79.9318 124.328 82.4777 124.43C81.6475 124.131 80.8119 123.893 79.9604 123.7C80.9712 123.588 81.9873 123.553 83.0838 123.797C83.3143 123.842 83.5169 123.828 83.6839 123.775C85.1921 124.293 86.6564 124.933 87.9986 125.728L88.0131 125.734L88.0277 125.739C88.4764 126.001 88.9132 126.295 89.346 126.601C89.3011 126.498 89.3515 126.403 89.4271 126.33C89.9775 126.904 90.5835 127.46 91.1033 128.072C91.602 128.652 92.053 129.228 92.5491 129.769C92.2333 129.092 91.9626 128.382 91.7423 127.714C91.6367 127.413 92.388 127.245 92.5187 127.568C93.2043 129.091 94.2438 130.454 95.0964 131.925C98.1361 135.41 101.768 138.619 106.21 137.476C106.373 137.435 106.549 137.448 106.703 137.479C107.648 136.542 107.915 135.161 107.542 133.775Z" fill="black"/>
<path d="M113.351 133.175C113.292 132.791 112.549 132.936 112.565 133.255C112.607 134.647 112.068 135.918 111.341 137.07C110.401 138.585 109.048 139.099 107.044 139.455C106.745 139.51 106.26 139.898 106.786 140.125C108.909 141.039 110.847 139.584 111.836 138.438C113.071 137.017 113.669 135.079 113.351 133.175Z" fill="black"/>
<path d="M128.862 140.549C129.807 142.458 133.87 141.523 135.782 140.725C138.201 139.715 139.789 138.226 141.306 136.658C141.471 136.697 141.642 136.702 141.786 136.62C143.481 135.679 144.869 134.542 146.721 133.788C148.731 133.812 150.622 133.743 152.593 134.261C153.472 134.493 154.324 134.764 155.174 135.024C155.207 135.086 155.243 135.159 155.322 135.225C156.54 136.168 159.953 136.763 161.54 135.66C162.801 134.771 162.555 133.556 161.719 132.66C160.415 127.516 154.897 124.783 148.021 124.667C143.634 124.593 140.309 126.192 136.936 128.422C134.385 130.102 132.857 131.479 131.903 133.288C131.807 133.259 131.701 133.233 131.6 133.239C129.304 133.265 127.854 135.478 127.483 136.993C127.141 138.344 127.701 139.674 128.862 140.549Z" fill="black"/>
<path d="M129.007 136.762C129.523 135.63 130.41 135.124 131.368 134.447C131.271 134.736 131.174 135.025 131.081 135.336C132.08 133.847 133.744 132.605 135.442 131.426C138.376 128.558 142.52 126.261 146.827 125.941C153.694 125.424 157.785 127.51 160.102 131.639C159.994 131.601 159.881 131.541 159.764 131.517C159.433 131.438 159.117 131.709 159.403 131.919C160.245 132.521 161.998 134.583 159.634 134.803C158.286 134.936 157.083 134.533 155.781 134.477C155.757 134.47 155.748 134.483 155.726 134.486C153.941 133.8 151.945 133.14 149.939 132.877C150.632 132.756 151.31 132.684 152.007 132.653C151.231 132.425 150.432 132.259 149.544 132.3C149.353 132.311 149.209 132.268 149.073 132.201C147.828 132.406 146.588 132.702 145.43 133.142C145.036 133.289 144.657 133.457 144.281 133.636C144.324 133.561 144.3 133.486 144.251 133.403C143.738 133.776 143.189 134.133 142.694 134.547C142.229 134.934 141.788 135.328 141.328 135.68C141.673 135.19 141.98 134.672 142.233 134.174C142.352 133.95 141.802 133.717 141.638 133.949C140.901 135.052 139.899 135.997 139.024 137.022C136.167 139.356 132.882 141.379 129.547 139.863C129.437 139.815 129.297 139.794 129.172 139.793C128.547 138.938 128.53 137.797 129.007 136.762Z" fill="#FAFAFA"/>
<path opacity="0.9" d="M155.416 130.563C153.36 130.468 151.368 130.804 149.337 130.92C148.596 130.958 148.546 130.219 148.917 129.746L149.184 129.394C147.123 129.594 145.256 130.52 143.237 131.03C142.792 131.142 142.606 130.789 142.611 130.426C139.977 132.414 137.871 135.807 134.464 135.958C133.947 135.981 133.735 135.61 133.823 135.141C133.832 135.128 133.83 135.117 133.829 135.106C133.054 135.796 132.345 136.543 131.532 137.206C131.254 137.436 130.731 137.425 130.567 137.068C130.286 136.494 130.155 135.939 130.103 135.381C129.667 135.74 129.3 136.167 129.02 136.771C128.532 137.808 128.558 138.936 129.187 139.813C129.312 139.814 129.449 139.824 129.562 139.883C132.886 141.401 136.181 139.376 139.038 137.042C139.912 136.006 140.916 135.072 141.653 133.969C141.806 133.739 142.367 133.97 142.247 134.194C141.994 134.692 141.686 135.199 141.343 135.7C141.803 135.348 142.244 134.954 142.709 134.567C143.203 134.153 143.753 133.796 144.266 133.423C144.314 133.506 144.348 133.568 144.295 133.656C144.672 133.477 145.051 133.309 145.444 133.162C146.603 132.722 147.843 132.426 149.088 132.221C149.224 132.288 149.377 132.318 149.558 132.32C150.448 132.29 151.248 132.456 152.022 132.673C151.327 132.715 150.635 132.778 149.953 132.897C151.95 133.172 153.956 133.82 155.741 134.506C155.763 134.503 155.772 134.49 155.796 134.497C157.095 134.542 158.301 134.956 159.648 134.823C161.833 134.612 160.517 132.847 159.629 132.107C158.28 131.39 156.845 130.631 155.416 130.563Z" fill="black"/>
<path d="M127.047 142.746C125.817 141.668 124.299 141.151 123.121 139.917C121.733 138.459 121.064 136.502 121.104 134.523C121.111 134.171 120.619 134.336 120.586 134.602C120.067 138.194 122.515 143.399 126.548 143.852C127.059 143.922 127.435 143.086 127.047 142.746Z" fill="black"/>
<path d="M212.794 94.6537C211.442 90.175 208.704 88.5601 205.887 86.4154C205.943 86.428 205.988 86.4659 206.077 86.4406C206.222 86.4028 206.357 86.3397 206.491 86.2893C207.217 86.1631 208.055 85.8351 208.458 85.2169C212.18 82.2016 212.414 75.2123 211.285 70.557C209.654 63.8579 204.412 60.9057 198.857 59.4549C200.891 58.0671 201.081 54.9131 199.65 52.8441C198.577 51.2671 197.046 50.5732 195.403 50.1821C198.041 47.293 198.712 43.1928 198.063 39.1682C197.314 34.3868 192.62 31.7752 189.066 30.0847C183.187 27.3091 175.52 26.918 168.836 28.7978C171.641 24.7733 172.513 18.6797 168.244 15.3113C164.88 12.6493 160.699 12.2456 156.687 12.2456C154.407 12.2456 152.026 12.5988 149.891 13.5072C147.69 14.4408 146.27 16.5224 144.08 17.4812C144.907 15.1977 145.387 12.788 145.186 10.5424C144.728 5.28149 140.302 1.58498 135.954 0.449533C127.281 -1.82136 118.574 5.30672 114.416 13.9487C114.539 10.7695 114.003 7.37575 112.371 5.15533C109.42 1.15603 105.341 1.95084 101.384 3.57832C96.4777 5.59689 94.2647 11.312 94.4212 16.9135C88.9222 8.01917 79.5449 3.83064 70.38 9.55833C66.8593 11.7409 64.2439 15.2482 63.7633 19.6512C59.9744 16.1818 54.1402 18.3643 50.8542 21.6445C47.5012 24.9878 45.9364 30.4253 47.4117 35.1185C43.1087 31.8509 36.9168 33.0999 32.6808 36.4684C27.5953 40.5055 24.7006 48.0121 26.2765 54.8122C21.1352 50.9264 13.535 51.5825 9.69016 57.8274C4.50415 66.2297 7.57775 74.7203 14.1832 80.3975C11.0202 81.3059 8.22601 83.6525 6.77303 87.1471C5.4877 90.2633 7.14186 96.3695 10.3608 97.0003C5.0071 100.533 1.40818 105.743 0.413448 113.83C-0.223627 118.977 1.8329 123.545 5.02945 127.039C7.64481 129.903 13.0544 129.689 16.575 129.424C16.8433 130.988 17.2792 132.515 17.7598 133.814C18.4192 135.605 19.7716 137.208 21.4258 138.406C18.4304 141.169 15.7703 145.824 16.0833 150.24C16.4856 155.98 20.5093 158.996 25.3376 159.551C25.7176 159.589 26.0977 159.248 26.1535 158.819C26.5335 155.766 27.6177 153.217 29.976 151.502C32.6361 149.559 35.0838 150.543 37.8891 150.82C38.1238 150.846 38.3586 150.682 38.515 150.455C40.1916 151.527 41.7339 153.129 42.7622 154.34C44.1369 155.955 45.2882 157.835 46.1041 159.879C46.3499 160.51 46.4952 161.178 46.5735 161.859C45.8805 162.717 45.6011 163.121 44.9305 164.244C44.5393 164.9 44.8187 165.329 45.2434 165.43C45.0758 165.821 44.9417 166.237 44.8746 166.654C44.8523 166.729 44.8076 166.792 44.7852 166.855C44.6846 167.133 44.707 167.335 44.7964 167.486C44.7852 167.612 44.774 167.726 44.774 167.852C44.7964 168.584 45.5676 168.218 45.8358 167.903C45.7576 168.319 45.6905 168.735 45.5899 169.164C45.5564 169.316 45.5676 169.404 45.5899 169.492C45.2993 170.123 45.0311 170.779 44.8523 171.473C44.7293 171.965 45.0087 172.243 45.3664 172.167C45.344 172.205 45.3217 172.243 45.2993 172.28C45.1205 172.659 45.1987 173.126 45.467 173.252C45.4558 173.302 45.4335 173.34 45.4111 173.391C45.2882 173.895 45.1987 174.387 45.1317 174.892C45.0646 175.283 45.2211 175.472 45.4446 175.523C45.4558 175.977 45.4893 176.418 45.5229 176.86C45.4335 177.062 45.344 177.251 45.2658 177.453C45.0199 178.033 45.5788 178.349 45.9811 178.109C45.6346 179.043 45.3999 179.9 45.4223 180.556C45.4223 180.594 45.4111 180.62 45.3999 180.67C45.2211 180.72 45.0311 180.885 45.0199 181.086C44.8634 184.442 43.5222 189.161 44.5505 192.63C44.5281 192.983 44.517 193.349 44.4834 193.69C44.4723 193.917 44.4387 194.131 44.4275 194.346C44.394 194.775 44.327 194.775 44.5058 194.472C44.4834 194.548 44.4611 194.623 44.4499 194.699C44.394 194.989 44.6176 195.267 44.8858 195.216C45.1205 195.166 45.277 195.04 45.3887 194.85C45.2434 195.645 45.1987 196.491 45.3552 197.21C45.0311 198.976 44.9864 200.818 45.344 202.382C45.5005 203.064 46.2158 202.609 46.3164 202.117C46.5511 200.894 46.417 199.594 46.4394 198.333C46.6182 198.219 46.7635 198.017 46.7076 197.777C46.6294 197.424 46.5847 197.058 46.5511 196.705C46.7076 195.57 47.0206 194.472 47.5347 193.45C47.8588 192.794 47.1994 192.466 46.8417 192.933C47.2441 191.141 47.9482 189.4 48.6635 187.836C48.9318 187.256 48.1382 187.092 47.9035 187.571C47.0876 189.211 46.4505 190.94 45.9364 192.718C45.8917 192.453 45.8246 192.176 45.7911 191.911C45.9029 190.7 46.1152 189.539 46.5735 188.454C46.607 188.404 46.6294 188.366 46.6405 188.315C46.7747 188.025 46.8976 187.722 47.0653 187.457C47.3223 187.066 47.11 186.814 46.8305 186.801C47.1211 185.237 47.8588 183.799 48.4959 182.373C48.82 181.616 47.8253 181.629 47.557 182.209C47.4565 182.436 47.2441 182.827 46.9982 183.307C47.0206 182.663 47.6017 181.465 47.7359 181.149C48.1382 180.165 48.6188 179.232 49.0994 178.286C49.4794 177.541 48.63 177.175 48.2724 177.831C48.0935 178.147 47.3447 179.459 46.73 180.847C46.6852 180.317 46.7411 179.762 46.8305 179.219C46.9423 178.778 47.0541 178.336 47.1659 177.907C47.1659 177.882 47.1659 177.882 47.1659 177.857C47.68 176.292 48.4959 174.766 49.0659 173.416C49.2894 172.861 48.5629 172.722 48.3618 173.163C48.1718 173.567 47.5235 174.715 46.8976 176.027C47.3111 174.715 47.7023 173.416 48.0041 172.041C48.06 171.788 47.8476 171.599 47.6464 171.624C47.5235 171.637 47.4117 171.65 47.2888 171.65C47.3223 171.46 47.3223 171.271 47.3447 171.094C47.3559 170.994 47.3782 170.893 47.3894 170.792C47.4006 170.754 47.3782 170.729 47.3782 170.703C47.3782 170.678 47.3894 170.64 47.3894 170.615C47.7694 169.82 48.1494 169.025 48.4959 168.205C48.7306 167.663 48.1829 167.448 47.8253 167.675C48.3953 166.527 48.9765 165.392 49.4683 164.206C49.6694 163.701 49.0324 163.601 48.8312 163.979C48.6859 164.269 48.4959 164.559 48.3171 164.849C48.2835 164.837 48.25 164.824 48.2165 164.824C48.3059 164.622 48.4176 164.446 48.4959 164.231C48.5518 164.067 48.5406 163.929 48.4735 163.815C48.6859 163.613 48.9094 163.399 49.1218 163.172C49.3118 162.97 49.3565 162.566 49.0435 162.49C48.7306 162.415 48.4177 162.516 48.1159 162.692C48.9206 161.658 49.703 160.547 49.8818 159.576C50.4406 156.523 50.0718 153.47 50.0495 150.366C49.9712 141.989 49.6583 133.599 50.8877 125.311C51.3571 125.323 51.8266 125.336 52.2848 125.298C60.6786 124.68 63.4727 112.657 63.4951 104.873C64.2775 105.239 65.1381 105.516 66.0881 105.718C71.453 106.803 79.2432 104.128 81.4785 97.997C81.9144 99.0315 82.5179 100.028 83.3674 100.899C88.5199 106.185 97.3495 102.45 101.183 96.6975C101.809 99.1703 103.363 101.365 106.112 102.842C111.969 105.983 120.128 103.296 123.66 97.2021C123.827 98.7413 124.207 100.217 124.856 101.529C129.047 110.045 139.341 108.355 146.114 104.255C145.711 108.292 146.818 111.458 150.35 113.527C153.815 115.546 158.777 116.341 161.035 112.127C161.437 116.593 163.125 120.214 166.243 122.308C166.288 124.15 167.07 126.131 167.439 127.834C168.389 132.401 168.143 137.637 168.02 142.279C167.942 145.37 166.657 149.319 166.97 152.271C167.048 153.028 167.83 153.899 168.769 154.706C168.646 154.643 168.523 154.555 168.4 154.479C168.009 154.239 167.35 155.022 167.741 155.375C167.931 155.551 168.143 155.715 168.356 155.879C168.132 156.056 167.987 156.384 168.199 156.599C168.266 156.674 168.333 156.725 168.4 156.788C167.987 156.99 167.651 157.469 167.897 157.923C167.998 158.138 168.132 158.327 168.255 158.529C167.964 158.113 167.227 158.819 167.45 159.261C168.49 161.229 167.316 159.459 167.741 161.806C167.797 162.172 167.506 162.726 167.741 162.6C167.73 163.054 171.798 166.162 171.787 166.603C171.004 165.543 170.066 164.572 169.395 163.487C169.104 163.02 168.3 163.777 168.534 164.244C168.993 165.102 169.529 165.884 170.077 166.666C170.188 166.805 170.278 166.956 170.379 167.108C169.82 166.414 169.261 165.808 168.825 165.354C168.546 165.077 168.054 165.606 168.3 165.934C169.663 167.726 171.038 169.845 171.586 172.179C171.563 172.634 171.552 173.088 171.53 173.542C171.038 172.911 170.557 172.356 170.256 171.965C169.909 171.523 169.227 172.293 169.529 172.747C170.244 173.807 170.949 174.867 171.552 176.027C172.055 176.986 172.223 177.895 172.48 178.904C172.435 179.194 172.413 179.497 172.357 179.774C171.787 178.298 170.982 176.885 170.479 175.813C170.244 175.296 169.551 175.876 169.708 176.355C170.155 177.655 170.624 178.954 171.06 180.254C171.161 180.556 171.228 180.859 171.284 181.162C170.971 180.38 170.669 179.623 170.434 178.815C170.3 178.374 169.641 178.828 169.719 179.207C169.987 180.569 170.457 181.881 170.859 183.193C171.016 183.698 171.105 184.165 171.172 184.644C171.139 184.783 171.105 184.922 171.083 185.073C171.038 185.288 171.139 185.376 171.273 185.376C171.295 185.552 171.306 185.742 171.317 185.931C171.161 185.906 170.971 186.044 170.904 186.234C170.837 185.78 170.792 185.325 170.725 184.859C170.636 184.228 169.842 184.695 169.876 185.199C170.043 187.23 170.2 189.274 170.177 191.305C170.177 191.848 170.077 192.567 170.2 193.135C170.211 193.21 170.2 193.286 170.222 193.362C170.244 193.501 170.323 193.538 170.412 193.551C170.49 193.614 170.591 193.614 170.68 193.602C170.479 193.942 170.792 194.258 171.094 194.056C172.703 192.996 172.446 189.501 172.636 187.722C172.681 187.319 172.323 187.331 172.1 187.521C172.826 186.827 172.692 185.691 172.457 184.707C172.547 184.644 172.625 184.568 172.67 184.493C172.972 183.862 173.061 183.155 173.005 182.436C173.229 181.427 173.329 180.342 173.419 179.421C173.441 179.169 173.441 178.929 173.463 178.677C173.631 178.235 173.642 177.756 173.542 177.251C173.62 174.917 173.542 172.571 173.698 170.237C174.592 167.221 174.268 163.853 174.19 160.749C174.179 160.194 173.463 160.61 173.452 161.039C173.441 161.796 173.419 162.541 173.396 163.285C173.374 163.26 173.363 163.235 173.34 163.209C173.184 162.465 172.949 161.733 172.692 161.014C172.692 160.926 172.681 160.825 172.67 160.737C172.67 160.56 172.58 160.484 172.48 160.472C172.413 160.282 172.346 160.081 172.267 159.891C172.77 159.538 173.005 158.617 172.502 158.377C172.502 158.377 172.502 158.365 172.513 158.365C172.469 158.34 172.424 158.314 172.368 158.289C172.513 158.163 172.636 157.986 172.726 157.822C172.882 157.772 173.262 154.883 173.34 154.706C176.135 148.222 187.278 147.654 191.301 154.504C191.201 154.63 191.145 154.807 191.212 155.009C191.324 155.35 191.581 155.64 191.938 155.854C191.95 155.892 191.983 155.93 191.994 155.968C192.151 156.397 192.509 156.435 192.855 156.271C194.71 156.876 197.538 156.763 198.522 156.573C201.394 156.006 204.356 153.142 205.507 150.164C206.636 147.263 207.53 143.755 205.798 140.892C205.094 139.731 204.177 138.747 203.126 137.965C205.619 137.359 207.34 135.076 207.888 131.682C208.614 127.178 207.083 123.368 204.412 120.618C210.112 121.387 212.917 113.3 213.901 108.065C214.806 103.548 214.102 98.9558 212.794 94.6537Z" fill="black"/>
<path d="M211.437 115.09C219.346 115.407 221.752 105.711 220.942 98.9383C220.461 94.8821 219.522 89.5713 216.318 86.7575C214.945 85.5516 213.42 84.6137 212.059 83.4687C211.812 82.7744 211.613 82.0558 211.425 81.3371C211.507 81.4102 211.589 81.4833 211.671 81.5563C212.282 81.8974 213.021 82.0923 213.643 82.1167C213.936 82.1288 214.253 82.1288 214.546 82.0923C220.12 78.2432 219.675 69.1928 215.145 64.2596C212.352 61.2144 208.914 59.9232 205.299 58.9C203.281 57.548 200.77 56.9146 198.141 56.4395C198.258 56.2203 198.493 56.0132 198.692 56.0376C200.699 56.2325 202.882 56.5004 205.065 56.9268C205.088 56.8415 205.1 56.7562 205.147 56.6831C205.921 55.5869 207.282 54.7342 206.555 53.1385C205.98 51.8961 204.912 50.9582 203.715 50.3613C202.929 49.9715 202.119 49.7157 201.286 49.4965C201.18 49.4234 201.086 49.3381 200.969 49.265C199.901 48.6194 198.763 48.1809 197.707 47.5354C199.15 47.779 200.723 47.8886 202.248 48.1566C202.26 48.1444 202.26 48.1322 202.272 48.12C210.545 38.619 198.071 30.2143 189.833 29.0327C183.989 28.2044 177.839 28.4724 172.136 30.1533C170.564 30.1046 168.991 30.3117 167.56 30.7868C167.607 30.6893 167.689 30.604 167.783 30.5553C169.449 29.5687 171.303 28.8135 173.239 28.1922C175.023 25.6099 176.736 22.2967 175.399 19.1541C173.791 15.3902 170.212 13.8798 166.457 13.3682C162.103 12.7835 157.104 12.5277 153.278 15.1588C151.753 16.2063 150.391 17.1199 148.69 17.4853C147.692 19.7266 146.331 21.7973 144.911 23.4052C145.017 22.65 145.169 21.9191 145.357 21.1883C147.657 17.3391 149.84 12.9297 148.115 8.41061C146.542 4.2935 141.543 1.57718 137.413 1.33357C128.74 0.834152 119.505 9.29981 117.193 17.6802C117.135 17.8751 116.982 18.0213 116.794 18.0944C116.7 17.1442 116.56 16.1941 116.36 15.2562C116.606 12.1258 116.172 8.38625 114.224 6.29115C111.208 3.05106 105.364 3.52611 102.29 6.69312C99.3326 9.72614 98.0887 14.0138 98.4173 18.1918C98.1709 19.2881 98.0066 20.5549 98.0183 21.8339C97.6193 20.8472 97.3142 19.7875 97.1265 18.7034C91.5758 12.1623 83.2675 5.31669 74.4311 9.7505C69.5493 12.1988 65.8528 15.8774 66.2635 21.846C66.3926 23.6975 66.6039 25.6465 67.1671 27.4492C67.1202 28.3506 67.1671 29.2642 67.3079 30.1412C65.3013 27.4127 64.562 23.5148 64.562 20.2504C64.562 20.1773 64.5737 20.1164 64.5737 20.0555C64.3742 20.1773 64.1512 20.2382 63.9635 20.1164C55.174 14.3914 45.2462 26.0606 48.8958 34.9769C48.8958 34.9769 48.8958 34.9891 48.9075 34.9891C48.9193 35.8296 49.0132 36.6457 49.2479 37.4009C46.807 35.7565 44.7064 33.7345 41.6201 33.5274C38.1231 33.2838 34.5909 34.441 31.9623 36.9137C27.3035 41.2988 25.3907 47.0969 26.2356 53.5161C27.1275 54.2713 27.9372 55.1484 28.5943 56.1594C28.6061 56.1715 28.5943 56.1959 28.6061 56.2081C27.4208 55.3311 25.907 54.5515 24.358 54.1008C22.4452 52.8584 20.3564 51.9814 17.9507 52.2128C13.292 52.6513 9.00871 55.0022 7.41276 59.8623C5.05403 67.1221 9.07912 72.3842 13.7027 77.2687C15.1344 77.0251 16.613 77.0251 18.0798 77.3052C17.7512 77.3783 17.4227 77.4636 17.1293 77.561C16.6247 77.7316 16.1436 77.963 15.6742 78.2066C12.2476 78.4624 8.63319 80.0459 6.94336 83.1398C5.18312 86.3434 5.74639 92.5069 10.147 92.6165C11.3909 91.9588 12.7287 91.3863 14.1134 90.8625C13.2685 91.5324 12.494 92.312 11.8603 93.1768C5.84027 96.7458 0.653425 101.35 0.313111 109.499C0.101882 114.371 2.06162 119.707 6.47396 122.106C9.25514 123.617 11.9894 123.824 14.9818 124.055C14.4889 120.827 14.8527 117.465 17.1176 115.285C17.0354 115.577 16.965 115.87 16.8946 116.15C14.5828 119.67 16.0379 125.578 18.115 128.818C19.9574 131.68 22.7973 132.704 25.8132 133.203C27.0923 134.104 28.6178 134.726 30.1434 134.994C27.4443 136.224 23.9356 135.639 21.0605 134.019C18.2324 137.32 14.6298 142.875 17.2114 147.308C18.9365 150.268 21.5182 150.743 24.1116 152.193C25.1208 147.15 28.3714 144.507 32.5608 143.934C36.4568 141.181 41.5145 145.018 44.1666 148.112C45.7039 149.903 47.3351 152.168 47.8045 154.605C49.0718 152.704 48.8606 151.206 48.8019 148.636C48.708 145.238 48.7667 141.839 48.7785 138.441C48.8019 132.496 49.2831 126.589 50.5387 120.779C46.232 120.498 42.0895 118.391 40.4232 114.067C38.5691 109.219 42.0074 103.348 44.636 99.5596C43.0166 99.4256 41.4206 99.0602 40.1533 98.5607C36.9027 97.2939 34.3679 94.6994 33.6169 91.0817C32.6898 86.5627 33.5113 82.6283 35.5532 79.3638C27.2918 77.2809 28.9112 64.418 33.0067 59.1193C37.9823 52.7 46.4432 53.1751 50.8908 58.9122C51.1841 59.6065 51.4423 60.3252 51.6301 61.0561C47.0652 53.5649 36.1282 53.4431 32.4434 62.469C31.2464 65.429 30.6128 69.071 31.7745 72.1649C32.7837 74.8447 34.5674 76.209 36.6328 77.8168C37.9471 76.1602 39.6252 74.7107 41.538 73.4927C40.6344 74.5037 39.8599 75.6243 39.2262 76.6353C39.1323 76.7815 39.0737 76.9155 38.9915 77.0616C35.694 80.8986 33.746 85.9171 35.9052 91.1305C37.5716 95.1623 40.8574 97.099 44.5421 97.635C45.9269 98.5364 47.7106 99.0723 49.4356 99.0967C48.0978 99.523 46.5606 99.657 45.035 99.5718C42.3829 103.993 38.3813 113.105 44.5304 116.564C47.8045 118.403 52.5336 120.011 56.0072 117.672C61.2879 114.103 63.1772 106.941 63.8109 100.778C61.2175 99.4743 59.6802 97.3061 59.1522 94.6751C59.7741 95.7713 60.7951 96.5509 61.9568 97.0625C63.4354 98.7922 65.6651 99.925 68.5636 100.144C74.3841 100.583 79.1485 98.2075 82.6925 93.5057C82.7394 93.4448 82.7981 93.4205 82.8568 93.3839C81.0848 87.6468 85.1099 80.3504 90.0972 77.5123C89.8977 77.7194 89.8038 77.9508 89.7921 78.1701C85.1685 82.0923 80.1225 92.3607 87.2222 96.3438C92.8549 99.523 99.6964 96.7093 103.733 92.044C103.369 89.62 103.909 86.989 105.071 84.5406C104.813 86.0511 104.801 87.6346 105.048 89.1815C104.883 92.3485 105.939 95.3694 109.178 96.9163C116.02 100.193 123.765 97.7568 127.485 91.2766C127.626 88.4629 128.517 85.6004 129.996 83.2373C129.832 83.6149 129.656 84.0047 129.538 84.431C128.975 86.3921 128.799 88.2558 129.046 89.9976C129.01 90.1438 128.987 90.3022 128.952 90.4483C128.823 93.457 129.714 96.3438 132.003 98.2075C137.765 102.921 145.158 102.093 151.377 98.9627C151.436 98.7922 151.588 98.6704 151.741 98.6095C151.753 98.6095 151.753 98.6095 151.764 98.6095C151.835 98.5973 151.929 98.5851 151.999 98.5729C152.023 98.5851 152.058 98.5729 152.081 98.5851C152.093 98.5729 152.116 98.5607 152.14 98.5486C152.914 98.4633 153.748 98.378 154.499 98.1831C153.806 98.7556 153.032 99.3038 152.199 99.8275C152.128 102.714 152.738 105.565 155.379 107.136C158.641 109.085 163.394 110.961 166.234 107.428C166.351 107.282 166.574 107.209 166.762 107.221C166.691 106.052 166.691 104.834 166.82 103.555C166.844 103.323 167.313 103.129 167.313 103.433C167.325 109.852 169.566 116.272 176.361 117.587C179.154 118.123 182.674 118.537 185.139 116.674C188.037 114.481 188.248 111.387 188.201 108.05C186.441 108.025 184.787 107.453 183.378 106.466C184.552 106.624 185.796 106.49 186.981 106.113C187.861 106.247 188.753 106.271 189.598 106.137C192.121 105.747 193.283 104.395 193.658 102.532C194.409 101.314 194.761 99.8032 194.55 98.3902C194.562 98.4146 194.585 98.4024 194.597 98.4268C195.336 99.8276 195.536 101.253 195.336 102.58C200.957 99.8763 203.562 90.899 198.692 86.0511C195.43 82.811 190.912 81.8974 186.523 81.6782C187.392 81.4589 188.26 81.3127 189.14 81.2275C194.632 81.4833 200.277 83.1764 202.319 88.9988C204.231 94.4436 200.875 103.823 194.738 104.456C193.928 106.052 192.438 107.307 190.455 107.818C190.02 107.94 189.586 107.989 189.164 108.025C190.173 114.627 185.549 120.048 178.884 119.755C176.689 119.658 174.812 119.183 173.228 118.403C173.674 120.194 174.507 121.899 174.8 123.738C175.34 127.039 175.68 130.401 175.668 133.763C175.657 136.443 175.633 139.147 175.293 141.815C174.741 146.139 175.516 147.905 179.623 149.757C181.536 146.614 185.115 144.677 188.659 144.324C193.776 143.812 197.249 145.506 200.77 149.135C201.532 149.221 202.354 149.306 202.495 149.318C204.102 149.55 205.686 149.623 207.212 148.904C210.24 147.454 212.751 144.324 213.009 140.755C213.349 135.639 209.981 134.056 206.25 132.582C207.059 132.423 207.857 132.155 208.608 131.778C208.655 131.79 208.714 131.802 208.761 131.827C210.85 131.912 213.091 131.656 213.807 129.195C214.288 127.502 214.476 125.48 214.183 123.726C213.795 121.314 212.645 119.414 211.143 117.794C211.132 117.77 211.12 117.733 211.096 117.709C210.603 116.856 210.052 116.077 209.43 115.322C208.867 114.639 207.799 114.03 207.494 113.141C208.796 113.677 210.028 114.371 211.12 115.188C211.214 115.139 211.319 115.09 211.437 115.09Z" fill="#131313"/>
<g opacity="0.3">
<path d="M87.9968 79.0591C81.7303 84.4552 73.023 86.4894 64.5621 85.4418C60.1028 84.8937 55.667 82.5793 55.843 77.366C52.1113 78.0115 48.3209 77.439 45.6101 75.1369C42.3713 72.3962 40.7166 67.0123 43.7677 63.3702C45.8096 60.9219 48.5908 59.7769 51.1725 60.3737C46.3494 53.6012 36.0109 53.7474 32.4552 62.4688C31.2583 65.4288 30.6246 69.0708 31.7863 72.1647C32.7955 74.8445 34.5793 76.2088 36.6446 77.8166C37.9589 76.1601 39.637 74.7105 41.5498 73.4925C40.6462 74.5035 39.8717 75.6241 39.238 76.6351C39.1441 76.7813 39.0855 76.9153 39.0033 77.0614C35.7058 80.8984 33.7578 85.9169 35.917 91.1303C37.5834 95.1621 40.8692 97.0988 44.554 97.6348C45.9387 98.5362 47.7224 99.0721 49.4474 99.0965C48.1097 99.5228 46.5724 99.6568 45.0468 99.5716C42.3947 103.993 38.3931 113.104 44.5422 116.564C47.8163 118.403 52.5455 120.011 56.019 117.672C61.2997 114.103 63.1891 106.941 63.8228 100.777C61.2293 99.4741 59.692 97.3059 59.164 94.6749C59.7859 95.7711 60.8069 96.5507 61.9686 97.0623C63.4472 98.792 65.6769 99.9248 68.5754 100.144C74.3959 100.583 79.1603 98.2073 82.7043 93.5055C82.7512 93.4446 82.8099 93.4202 82.8686 93.3837C81.3782 88.4992 84.0773 82.4819 87.9968 79.0591ZM59.2344 110.936C56.6175 113.884 52.6628 116.089 48.8137 114.274C46.1734 113.031 44.9882 110.449 45.7509 107.513C46.7953 103.494 51.8766 97.6104 55.8547 99.9613C56.8757 99.937 57.8731 100.132 58.8002 100.643C62.8253 102.812 61.8748 107.976 59.2344 110.936Z" fill="#1F1E1E"/>
<path d="M105.13 82.4207C102.9 83.4804 100.612 84.1138 98.4057 84.0895C95.824 84.0529 92.7377 82.8714 90.9892 80.691C91.177 80.4961 91.353 80.3012 91.529 80.1307C92.0336 79.6313 91.6112 78.9613 90.9892 79.2902C90.7663 79.412 90.555 79.5338 90.3321 79.68C90.0856 79.2293 89.8861 78.7543 89.7571 78.2427C85.1452 82.2014 80.1696 92.3968 87.234 96.3677C92.7612 99.486 99.4619 96.8184 103.51 92.2993C103.029 89.1689 103.71 85.7461 105.13 82.4207Z" fill="#1F1E1E"/>
</g>
<path opacity="0.6" d="M151.706 93.1524C147.071 96.7458 140.746 98.4755 136.275 93.6519C132.426 89.4982 132.977 82.5551 135.571 77.9386C135.841 77.4757 135.278 77.2809 135.008 77.6585C131.546 82.5673 130.044 90.8381 133.916 96.0149C138.88 102.641 147.951 100.437 152.927 95.0526C153.913 93.9807 153.056 92.1171 151.706 93.1524Z" fill="#424141"/>
<path opacity="0.6" d="M155.461 90.7402C154.534 90.7402 154.065 92.4337 155.227 92.4337C156.142 92.4337 156.623 90.7402 155.461 90.7402Z" fill="#595959"/>
<path d="M98.7008 193.085C86.2656 219.902 48.649 202.714 42.8874 174.911C37.1258 147.108 58.958 136.932 58.958 136.932C58.958 136.932 84.9445 136.752 96.496 142.982C108.047 149.213 111.136 166.269 98.7008 193.085Z" fill="white" stroke="black" stroke-width="4.35058"/>
<path d="M170.682 191.042C167.201 220.053 126.585 215.411 112.66 191.042C98.7352 166.672 116.141 150.426 116.141 150.426C116.141 150.426 140.511 142.303 153.276 144.624C166.04 146.945 174.163 162.031 170.682 191.042Z" fill="white" stroke="black" stroke-width="4.20171"/>
</svg>
