<svg width="722" height="108" viewBox="0 0 722 108" fill="none" xmlns="http://www.w3.org/2000/svg">
<path d="M28.6688 87.0264L35.789 69.9107L21.6507 54.4743L40.9132 34.9132L61.0254 54.6827L72.702 42.8229L46.1394 15.2026H34.791L0.297729 51.1891V59.1031L28.6688 87.0264Z" fill="white"/>
<path d="M117.893 20.2095L111.77 38.9108L124.911 52.7616L104.936 74.2387L84.1691 53.7268L72.4652 65.5334L100.422 92.0332H111.77L146.264 56.0467V48.1327L117.893 20.2095Z" fill="white"/>
<path d="M111.603 13.9185L117.893 20.2095L45.8058 94.2749L35.9523 94.3062L28.6681 87.022L101.376 13.9185H111.603Z" fill="white"/>
<path d="M186.936 80.1845C183.455 80.1845 180.355 79.5885 177.637 78.3963C174.919 77.2041 172.773 75.5828 171.199 73.5323C169.626 71.434 168.743 69.0974 168.553 66.5223H180.641C180.784 67.9052 181.428 69.0259 182.573 69.8842C183.717 70.7426 185.124 71.1718 186.793 71.1718C188.319 71.1718 189.487 70.8856 190.298 70.3134C191.156 69.6935 191.585 68.9067 191.585 67.9529C191.585 66.8084 190.989 65.9739 189.797 65.4494C188.605 64.8771 186.674 64.2572 184.003 63.5896C181.142 62.922 178.758 62.2305 176.85 61.5152C174.943 60.7522 173.297 59.5839 171.915 58.0102C170.532 56.3889 169.84 54.2192 169.84 51.501C169.84 49.2121 170.46 47.1377 171.7 45.2779C172.987 43.3704 174.847 41.8683 177.279 40.7715C179.759 39.6747 182.692 39.1263 186.077 39.1263C191.085 39.1263 195.019 40.3662 197.88 42.8459C200.789 45.3256 202.458 48.616 202.887 52.717H191.585C191.395 51.3341 190.775 50.2373 189.726 49.4267C188.724 48.616 187.389 48.2106 185.72 48.2106C184.289 48.2106 183.192 48.4968 182.429 49.069C181.666 49.5936 181.285 50.3327 181.285 51.2864C181.285 52.4309 181.881 53.2893 183.073 53.8615C184.313 54.4337 186.221 55.006 188.796 55.5782C191.752 56.3412 194.16 57.1042 196.02 57.8672C197.88 58.5825 199.501 59.7747 200.884 61.4437C202.315 63.065 203.054 65.2586 203.102 68.0244C203.102 70.3611 202.434 72.4593 201.099 74.3191C199.811 76.1312 197.928 77.5618 195.448 78.6109C193.016 79.66 190.179 80.1845 186.936 80.1845ZM208.153 59.5839C208.153 55.4829 208.916 51.8825 210.442 48.7829C212.015 45.6832 214.138 43.2989 216.808 41.6299C219.478 39.9608 222.459 39.1263 225.749 39.1263C228.563 39.1263 231.019 39.6986 233.117 40.843C235.263 41.9875 236.908 43.4897 238.052 45.3494V39.6986H250.284V79.6123H238.052V73.9614C236.86 75.8212 235.191 77.3233 233.045 78.4678C230.947 79.6123 228.491 80.1845 225.678 80.1845C222.435 80.1845 219.478 79.35 216.808 77.681C214.138 75.9643 212.015 73.5561 210.442 70.4565C208.916 67.3091 208.153 63.685 208.153 59.5839ZM238.052 59.6554C238.052 56.6035 237.194 54.1953 235.477 52.4309C233.808 50.6665 231.758 49.7843 229.326 49.7843C226.894 49.7843 224.819 50.6665 223.103 52.4309C221.434 54.1476 220.599 56.532 220.599 59.5839C220.599 62.6359 221.434 65.0679 223.103 66.88C224.819 68.6444 226.894 69.5266 229.326 69.5266C231.758 69.5266 233.808 68.6444 235.477 66.88C237.194 65.1156 238.052 62.7074 238.052 59.6554ZM281.379 69.2405V79.6123H275.156C270.721 79.6123 267.264 78.5394 264.784 76.3935C262.304 74.1999 261.064 70.6472 261.064 65.7355V49.8558H256.2V39.6986H261.064V29.9705H273.296V39.6986H281.307V49.8558H273.296V65.8785C273.296 67.0707 273.582 67.9291 274.154 68.4536C274.727 68.9782 275.68 69.2405 277.016 69.2405H281.379ZM300.424 46.3509C301.854 44.1573 303.643 42.4406 305.789 41.2007C307.934 39.9132 310.319 39.2694 312.941 39.2694V52.2163H309.58C306.528 52.2163 304.239 52.8839 302.713 54.2192C301.187 55.5067 300.424 57.7957 300.424 61.086V79.6123H288.192V39.6986H300.424V46.3509ZM324.94 35.5498C322.794 35.5498 321.029 34.9299 319.646 33.6901C318.311 32.4025 317.643 30.8289 317.643 28.9691C317.643 27.0616 318.311 25.4879 319.646 24.2481C321.029 22.9606 322.794 22.3168 324.94 22.3168C327.038 22.3168 328.754 22.9606 330.09 24.2481C331.473 25.4879 332.164 27.0616 332.164 28.9691C332.164 30.8289 331.473 32.4025 330.09 33.6901C328.754 34.9299 327.038 35.5498 324.94 35.5498ZM331.02 39.6986V79.6123H318.788V39.6986H331.02ZM337.452 59.5839C337.452 55.4829 338.215 51.8825 339.741 48.7829C341.314 45.6832 343.436 43.2989 346.107 41.6299C348.777 39.9608 351.758 39.1263 355.048 39.1263C357.862 39.1263 360.317 39.6986 362.416 40.843C364.562 41.9875 366.207 43.4897 367.351 45.3494V39.6986H379.583V79.6123H367.351V73.9614C366.159 75.8212 364.49 77.3233 362.344 78.4678C360.246 79.6123 357.79 80.1845 354.977 80.1845C351.734 80.1845 348.777 79.35 346.107 77.681C343.436 75.9643 341.314 73.5561 339.741 70.4565C338.215 67.3091 337.452 63.685 337.452 59.5839ZM367.351 59.6554C367.351 56.6035 366.493 54.1953 364.776 52.4309C363.107 50.6665 361.057 49.7843 358.625 49.7843C356.193 49.7843 354.118 50.6665 352.401 52.4309C350.732 54.1476 349.898 56.532 349.898 59.5839C349.898 62.6359 350.732 65.0679 352.401 66.88C354.118 68.6444 356.193 69.5266 358.625 69.5266C361.057 69.5266 363.107 68.6444 364.776 66.88C366.493 65.1156 367.351 62.7074 367.351 59.6554ZM394.154 80.1845C392.008 80.1845 390.244 79.5646 388.861 78.3248C387.526 77.0372 386.858 75.4636 386.858 73.6038C386.858 71.6963 387.526 70.0988 388.861 68.8113C390.244 67.5237 392.008 66.88 394.154 66.88C396.253 66.88 397.969 67.5237 399.304 68.8113C400.687 70.0988 401.379 71.6963 401.379 73.6038C401.379 75.4636 400.687 77.0372 399.304 78.3248C397.969 79.5646 396.253 80.1845 394.154 80.1845ZM423.784 39.1263C426.597 39.1263 429.053 39.6986 431.151 40.843C433.297 41.9875 434.943 43.4897 436.087 45.3494V39.6986H448.319V79.5408C448.319 83.2126 447.58 86.5269 446.101 89.4834C444.671 92.4877 442.453 94.872 439.449 96.6364C436.492 98.4008 432.797 99.2831 428.362 99.2831C422.449 99.2831 417.656 97.8763 413.984 95.0628C410.312 92.297 408.214 88.5297 407.69 83.761H419.778C420.16 85.287 421.066 86.4792 422.496 87.3375C423.927 88.2436 425.691 88.6966 427.79 88.6966C430.317 88.6966 432.32 87.9575 433.798 86.4792C435.324 85.0486 436.087 82.7358 436.087 79.5408V73.8899C434.895 75.7497 433.25 77.2757 431.151 78.4678C429.053 79.6123 426.597 80.1845 423.784 80.1845C420.494 80.1845 417.513 79.35 414.843 77.681C412.172 75.9643 410.05 73.5561 408.476 70.4565C406.951 67.3091 406.188 63.685 406.188 59.5839C406.188 55.4829 406.951 51.8825 408.476 48.7829C410.05 45.6832 412.172 43.2989 414.843 41.6299C417.513 39.9608 420.494 39.1263 423.784 39.1263ZM436.087 59.6554C436.087 56.6035 435.229 54.1953 433.512 52.4309C431.843 50.6665 429.792 49.7843 427.36 49.7843C424.928 49.7843 422.854 50.6665 421.137 52.4309C419.468 54.1476 418.634 56.532 418.634 59.5839C418.634 62.6359 419.468 65.0679 421.137 66.88C422.854 68.6444 424.928 69.5266 427.36 69.5266C429.792 69.5266 431.843 68.6444 433.512 66.88C435.229 65.1156 436.087 62.7074 436.087 59.6554ZM494.793 59.0117C494.793 60.1561 494.721 61.3483 494.578 62.5882H466.896C467.087 65.0679 467.873 66.9753 469.256 68.3106C470.687 69.5981 472.427 70.2419 474.478 70.2419C477.53 70.2419 479.652 68.9543 480.844 66.3793H493.863C493.195 69.002 491.979 71.3625 490.215 73.4607C488.498 75.5589 486.328 77.2041 483.705 78.3963C481.083 79.5885 478.15 80.1845 474.907 80.1845C470.997 80.1845 467.516 79.35 464.464 77.681C461.412 76.012 459.028 73.6276 457.311 70.528C455.594 67.4284 454.736 63.8042 454.736 59.6554C454.736 55.5067 455.57 51.8825 457.239 48.7829C458.956 45.6832 461.34 43.2989 464.392 41.6299C467.444 39.9608 470.949 39.1263 474.907 39.1263C478.77 39.1263 482.203 39.937 485.207 41.5584C488.212 43.1797 490.548 45.4925 492.217 48.4968C493.934 51.501 494.793 55.006 494.793 59.0117ZM482.275 55.7928C482.275 53.6946 481.559 52.0256 480.129 50.7857C478.698 49.5459 476.91 48.9259 474.764 48.9259C472.714 48.9259 470.973 49.522 469.542 50.7142C468.16 51.9064 467.301 53.5992 466.967 55.7928H482.275ZM513.477 46.3509C514.908 44.1573 516.696 42.4406 518.842 41.2007C520.988 39.9132 523.372 39.2694 525.995 39.2694V52.2163H522.633C519.581 52.2163 517.292 52.8839 515.766 54.2192C514.24 55.5067 513.477 57.7957 513.477 61.086V79.6123H501.245V39.6986H513.477V46.3509ZM556.376 39.2694C560.954 39.2694 564.626 40.7954 567.392 43.8473C570.157 46.8516 571.54 51.0003 571.54 56.2935V79.6123H559.38V57.9387C559.38 55.2683 558.689 53.1939 557.306 51.7156C555.923 50.2373 554.063 49.4982 551.726 49.4982C549.39 49.4982 547.53 50.2373 546.147 51.7156C544.764 53.1939 544.073 55.2683 544.073 57.9387V79.6123H531.841V26.6801H544.073V45.0633C545.313 43.2989 547.005 41.8922 549.151 40.843C551.297 39.7939 553.705 39.2694 556.376 39.2694ZM577.608 59.5839C577.608 55.4829 578.371 51.8825 579.897 48.7829C581.471 45.6832 583.593 43.2989 586.263 41.6299C588.934 39.9608 591.914 39.1263 595.204 39.1263C598.018 39.1263 600.474 39.6986 602.572 40.843C604.718 41.9875 606.363 43.4897 607.508 45.3494V39.6986H619.739V79.6123H607.508V73.9614C606.315 75.8212 604.646 77.3233 602.5 78.4678C600.402 79.6123 597.946 80.1845 595.133 80.1845C591.89 80.1845 588.934 79.35 586.263 77.681C583.593 75.9643 581.471 73.5561 579.897 70.4565C578.371 67.3091 577.608 63.685 577.608 59.5839ZM607.508 59.6554C607.508 56.6035 606.649 54.1953 604.932 52.4309C603.263 50.6665 601.213 49.7843 598.781 49.7843C596.349 49.7843 594.275 50.6665 592.558 52.4309C590.889 54.1476 590.054 56.532 590.054 59.5839C590.054 62.6359 590.889 65.0679 592.558 66.88C594.275 68.6444 596.349 69.5266 598.781 69.5266C601.213 69.5266 603.263 68.6444 604.932 66.88C606.649 65.1156 607.508 62.7074 607.508 59.6554ZM652.908 39.2694C657.582 39.2694 661.301 40.7954 664.067 43.8473C666.881 46.8516 668.287 51.0003 668.287 56.2935V79.6123H656.127V57.9387C656.127 55.2683 655.436 53.1939 654.053 51.7156C652.67 50.2373 650.81 49.4982 648.474 49.4982C646.137 49.4982 644.277 50.2373 642.894 51.7156C641.511 53.1939 640.82 55.2683 640.82 57.9387V79.6123H628.588V39.6986H640.82V44.9918C642.06 43.2274 643.729 41.8445 645.827 40.843C647.925 39.7939 650.286 39.2694 652.908 39.2694ZM674.355 59.5839C674.355 55.4829 675.118 51.8825 676.644 48.7829C678.218 45.6832 680.34 43.2989 683.01 41.6299C685.681 39.9608 688.661 39.1263 691.951 39.1263C694.765 39.1263 697.221 39.6986 699.319 40.843C701.465 41.9875 703.11 43.4897 704.255 45.3494V39.6986H716.486V79.6123H704.255V73.9614C703.062 75.8212 701.393 77.3233 699.248 78.4678C697.149 79.6123 694.693 80.1845 691.88 80.1845C688.637 80.1845 685.681 79.35 683.01 77.681C680.34 75.9643 678.218 73.5561 676.644 70.4565C675.118 67.3091 674.355 63.685 674.355 59.5839ZM704.255 59.6554C704.255 56.6035 703.396 54.1953 701.68 52.4309C700.011 50.6665 697.96 49.7843 695.528 49.7843C693.096 49.7843 691.022 50.6665 689.305 52.4309C687.636 54.1476 686.801 56.532 686.801 59.5839C686.801 62.6359 687.636 65.0679 689.305 66.88C691.022 68.6444 693.096 69.5266 695.528 69.5266C697.96 69.5266 700.011 68.6444 701.68 66.88C703.396 65.1156 704.255 62.7074 704.255 59.6554Z" fill="white"/>
</svg>
